<svg width="36" height="22" viewBox="0 0 36 22" fill="none" xmlns="http://www.w3.org/2000/svg">
<path d="M10.4709 0C11.51 0 12.4691 0.0777385 13.3484 0.310954C14.2276 0.466431 14.947 0.777385 15.5864 1.16608C16.2259 1.55477 16.7054 2.09894 17.0252 2.79859C17.3449 3.49823 17.5047 4.35336 17.5047 5.28622C17.5047 6.37456 17.2649 7.30742 16.7054 8.00707C16.2259 8.70671 15.4266 9.32862 14.4674 9.79505C15.8262 10.1837 16.8653 10.8834 17.5047 11.8163C18.1442 12.7491 18.5438 13.9152 18.5438 15.2367C18.5438 16.3251 18.304 17.258 17.9044 18.0353C17.5047 18.8127 16.8653 19.5124 16.1459 19.9788C15.4266 20.4452 14.5473 20.8339 13.5882 21.0671C12.629 21.3004 11.6698 21.4558 10.7107 21.4558H0V0H10.4709ZM9.83143 8.70671C10.7107 8.70671 11.43 8.4735 11.9895 8.08481C12.5491 7.69611 12.7889 6.99647 12.7889 6.14134C12.7889 5.67491 12.7089 5.20848 12.5491 4.89753C12.3892 4.58657 12.1494 4.35336 11.8297 4.12014C11.51 3.96466 11.1902 3.80919 10.7906 3.73145C10.3909 3.65371 9.99129 3.65371 9.51171 3.65371H4.87575V8.70671H9.83143ZM10.0712 17.8799C10.5508 17.8799 11.0304 17.8021 11.43 17.7244C11.8297 17.6466 12.2293 17.4912 12.5491 17.258C12.8688 17.0247 13.1086 16.7915 13.3484 16.4028C13.5082 16.0141 13.6681 15.5477 13.6681 15.0035C13.6681 13.9152 13.3484 13.1378 12.7089 12.5936C12.0695 12.1272 11.1902 11.894 10.1511 11.894H4.87575V17.8799H10.0712ZM25.4978 17.8021C26.1372 18.424 27.0964 18.735 28.3753 18.735C29.2545 18.735 30.0538 18.5018 30.6932 18.1131C31.3327 17.6466 31.7323 17.1802 31.8922 16.7138H35.8088C35.1693 18.5795 34.2102 19.9011 32.9313 20.7562C31.6524 21.5336 30.1337 22 28.2953 22C27.0164 22 25.8974 21.7668 24.8583 21.3781C23.8192 20.9894 23.0199 20.4452 22.3006 19.6678C21.5812 18.9682 21.0217 18.1131 20.702 17.1025C20.3023 16.0919 20.1424 15.0035 20.1424 13.7597C20.1424 12.5936 20.3023 11.5053 20.702 10.4947C21.1016 9.4841 21.6611 8.62898 22.3805 7.85159C23.0999 7.15194 23.9791 6.53004 24.9383 6.14134C25.9774 5.75265 27.0164 5.51943 28.2953 5.51943C29.6542 5.51943 30.8531 5.75265 31.8922 6.29682C32.9313 6.84099 33.7306 7.4629 34.37 8.39576C35.0095 9.25088 35.4891 10.2615 35.8088 11.3498C35.9686 12.4382 36.0486 13.5265 35.9686 14.7703H24.3787C24.3787 16.0141 24.8583 17.1802 25.4978 17.8021ZM30.5334 9.63958C29.9739 9.09541 29.0946 8.78445 28.0555 8.78445C27.3362 8.78445 26.7767 8.93993 26.2971 9.17315C25.8175 9.40636 25.4978 9.71731 25.178 10.0283C24.8583 10.3392 24.6985 10.7279 24.6185 11.1166C24.5386 11.5053 24.4587 11.8163 24.4587 12.1272H31.6524C31.4925 10.9611 31.0929 10.1837 30.5334 9.63958ZM23.4995 1.47703H32.4517V3.57597H23.4995V1.47703Z" fill="white"/>
</svg>
