<svg width="30" height="30" viewBox="0 0 30 30" fill="none" xmlns="http://www.w3.org/2000/svg">
<path d="M4.10332 7.8397C6.06702 7.8397 7.65892 6.24781 7.65892 4.28411C7.65892 2.32041 6.06702 0.728516 4.10332 0.728516C2.13962 0.728516 0.547729 2.32041 0.547729 4.28411C0.547729 6.24781 2.13962 7.8397 4.10332 7.8397Z" fill="white"/>
<path d="M10.9152 10.4674H16.808V13.1669C16.808 13.1669 18.4071 9.96877 22.758 9.96877C26.6391 9.96877 29.8543 11.8807 29.8543 17.7085V29.9977H23.7477V19.1976C23.7477 15.7598 21.9123 15.3817 20.5137 15.3817C17.6112 15.3817 17.1143 17.8853 17.1143 19.6461V29.9977H10.9152V10.4674Z" fill="white"/>
<path d="M1.00382 10.4673H7.20283V29.9976H1.00382V10.4673Z" fill="white"/>
</svg>
