<svg width="33" height="28" viewBox="0 0 33 28" fill="none" xmlns="http://www.w3.org/2000/svg">
<path d="M30.651 0.225846L1.75273 11.372C-0.21962 12.1633 -0.207923 13.2634 1.39322 13.7539L8.60053 16.0035L11.3582 24.4583C11.6935 25.3837 11.5282 25.7507 12.4999 25.7507C13.2499 25.7507 13.5825 25.4088 14.0002 25.0008C14.2658 24.7409 15.8428 23.2077 17.6037 21.4957L25.1006 27.0347C26.4801 27.7958 27.4762 27.4016 27.8198 25.7535L32.7409 2.56307C33.2448 0.543071 31.9708 -0.373189 30.651 0.225846ZM9.73163 15.4866L25.9769 5.23737C26.7879 4.74554 27.5315 5.00997 26.921 5.55191L13.0108 18.1025L12.4691 23.8792L9.73163 15.4866Z" fill="white"/>
</svg>
