<svg width="110" height="80" viewBox="0 0 110 80" fill="none" xmlns="http://www.w3.org/2000/svg">
<path d="M108.621 11.9736C108.621 18.5864 103.326 23.9472 96.7941 23.9472C90.262 23.9472 84.9667 18.5864 84.9667 11.9736C84.9667 5.36075 90.262 0 96.7941 0C103.326 0 108.621 5.36075 108.621 11.9736Z" fill="white"/>
<path d="M14.8378 32.618H18.3276V50.0341H14.9607V38.7385L10.1191 46.8246H9.7259L4.88435 38.7634V50.0341H1.49281V32.618H4.98266L9.92251 40.8534L14.8378 32.618Z" fill="white"/>
<path fill-rule="evenodd" clip-rule="evenodd" d="M30.7247 39.062V37.5941H33.895V50.0341H30.7247V48.5662C29.7744 49.777 28.4391 50.3825 26.7187 50.3825C25.0803 50.3825 23.6713 49.7522 22.4916 48.4916C21.3283 47.2144 20.7467 45.6552 20.7467 43.8141C20.7467 41.9895 21.3283 40.4387 22.4916 39.1615C23.6713 37.8843 25.0803 37.2457 26.7187 37.2457C28.4391 37.2457 29.7744 37.8512 30.7247 39.062ZM24.8755 46.3519C25.5145 46.9988 26.3255 47.3222 27.3086 47.3222C28.2916 47.3222 29.1026 46.9988 29.7416 46.3519C30.397 45.6884 30.7247 44.8425 30.7247 43.8141C30.7247 42.7857 30.397 41.9481 29.7416 41.3012C29.1026 40.6377 28.2916 40.306 27.3086 40.306C26.3255 40.306 25.5145 40.6377 24.8755 41.3012C24.2365 41.9481 23.917 42.7857 23.917 43.8141C23.917 44.8425 24.2365 45.6884 24.8755 46.3519Z" fill="white"/>
<path d="M40.6284 47.0236L45.8386 39.7337V37.5941H36.6224V40.6046H41.5623L36.3767 47.8944V50.0341H46.0843V47.0236H40.6284Z" fill="white"/>
<path d="M62.0008 37.2457C63.4098 37.2457 64.5322 37.7102 65.3678 38.639C66.2198 39.5679 66.6457 40.8119 66.6457 42.371V50.0341H63.4754V42.595C63.4754 41.8486 63.2952 41.268 62.9347 40.8534C62.5742 40.4387 62.0663 40.2313 61.411 40.2313C60.6901 40.2313 60.1248 40.4719 59.7152 40.9529C59.322 41.4339 59.1254 42.1305 59.1254 43.0428V50.0341H55.955V42.595C55.955 41.8486 55.7748 41.268 55.4143 40.8534C55.0539 40.4387 54.546 40.2313 53.8906 40.2313C53.1861 40.2313 52.6208 40.4802 52.1948 40.9778C51.7852 41.4588 51.5804 42.1471 51.5804 43.0428V50.0341H48.4101V37.5941H51.5804V38.9127C52.3177 37.8014 53.4564 37.2457 54.9965 37.2457C56.5203 37.2457 57.6344 37.8429 58.3389 39.0371C59.1418 37.8429 60.3624 37.2457 62.0008 37.2457Z" fill="white"/>
<path fill-rule="evenodd" clip-rule="evenodd" d="M75.1876 50.3825C77.0226 50.3825 78.5627 49.7522 79.8079 48.4916C81.0695 47.2144 81.7003 45.6552 81.7003 43.8141C81.7003 41.9895 81.0695 40.4387 79.8079 39.1615C78.5463 37.8843 77.0062 37.2457 75.1876 37.2457C73.3689 37.2457 71.8288 37.8843 70.5672 39.1615C69.322 40.4221 68.6994 41.973 68.6994 43.8141C68.6994 45.6718 69.322 47.231 70.5672 48.4916C71.8124 49.7522 73.3525 50.3825 75.1876 50.3825ZM75.1876 47.2476C74.2373 47.2476 73.4426 46.9241 72.8037 46.2772C72.1811 45.6138 71.8698 44.7927 71.8698 43.8141C71.8698 42.8355 72.1811 42.0144 72.8037 41.351C73.4426 40.7041 74.2373 40.3806 75.1876 40.3806C76.1379 40.3806 76.9325 40.7041 77.5715 41.351C78.2105 41.9978 78.53 42.8189 78.53 43.8141C78.53 44.8093 78.2105 45.6303 77.5715 46.2772C76.9325 46.9241 76.1379 47.2476 75.1876 47.2476Z" fill="white"/>
<path fill-rule="evenodd" clip-rule="evenodd" d="M94.4002 48.4916C93.155 49.7522 91.6148 50.3825 89.7798 50.3825C87.9448 50.3825 86.4046 49.7522 85.1594 48.4916C83.9142 47.231 83.2916 45.6718 83.2916 43.8141C83.2916 41.973 83.9142 40.4221 85.1594 39.1615C86.421 37.8843 87.9611 37.2457 89.7798 37.2457C91.5984 37.2457 93.1386 37.8843 94.4002 39.1615C95.6617 40.4387 96.2925 41.9895 96.2925 43.8141C96.2925 45.6552 95.6617 47.2144 94.4002 48.4916ZM87.3959 46.2772C88.0349 46.9241 88.8295 47.2476 89.7798 47.2476C90.7301 47.2476 91.5247 46.9241 92.1637 46.2772C92.8027 45.6303 93.1222 44.8093 93.1222 43.8141C93.1222 42.8189 92.8027 41.9978 92.1637 41.351C91.5247 40.7041 90.7301 40.3806 89.7798 40.3806C88.8295 40.3806 88.0349 40.7041 87.3959 41.351C86.7733 42.0144 86.462 42.8355 86.462 43.8141C86.462 44.7927 86.7733 45.6138 87.3959 46.2772Z" fill="white"/>
<path d="M108.673 38.6141C107.821 37.7019 106.715 37.2457 105.355 37.2457C103.667 37.2457 102.447 37.8263 101.693 38.9873V37.5941H98.5228V50.0341H101.693V43.3165C101.693 42.3047 101.931 41.5417 102.406 41.0275C102.897 40.4967 103.561 40.2313 104.397 40.2313C105.15 40.2313 105.74 40.4553 106.166 40.9031C106.608 41.351 106.83 41.9813 106.83 42.794V50.0341H110V42.3959C110 40.8036 109.558 39.543 108.673 38.6141Z" fill="white"/>
<path d="M10.7335 65.419H19.3598V66.7625C19.3598 69.2506 18.5734 71.2659 17.0005 72.8084C15.4276 74.351 13.396 75.1223 10.9056 75.1223C8.25132 75.1223 6.04764 74.2515 4.29452 72.5099C2.55779 70.7517 1.68943 68.612 1.68943 66.0908C1.68943 63.553 2.5496 61.405 4.26994 59.6468C6.00668 57.8886 8.15301 57.0095 10.709 57.0095C12.2982 57.0095 13.7564 57.3744 15.0835 58.1042C16.4107 58.8341 17.4511 59.821 18.2047 61.065L15.3047 62.7568C14.8951 62.0436 14.2725 61.4631 13.4369 61.0152C12.6013 60.5674 11.6838 60.3435 10.6844 60.3435C9.02957 60.3435 7.67787 60.8908 6.62928 61.9856C5.58068 63.0471 5.05639 64.4155 5.05639 66.0908C5.05639 67.7329 5.58888 69.093 6.65385 70.1711C7.71883 71.2327 9.14426 71.7635 10.9301 71.7635C12.2245 71.7635 13.3059 71.4732 14.1742 70.8927C15.0426 70.3121 15.6324 69.4994 15.9437 68.4544H10.7335V65.419Z" fill="white"/>
<path d="M24.7951 64.4736V62.3339H21.6247V74.774H24.7951V68.8276C24.7951 67.6334 25.1719 66.7791 25.9256 66.2649C26.6956 65.7342 27.564 65.5351 28.5307 65.6678V62.0851C27.6623 62.0851 26.8922 62.2924 26.2205 62.7071C25.5487 63.1052 25.0736 63.694 24.7951 64.4736Z" fill="white"/>
<path fill-rule="evenodd" clip-rule="evenodd" d="M40.3984 73.2314C39.1532 74.492 37.613 75.1223 35.778 75.1223C33.943 75.1223 32.4028 74.492 31.1576 73.2314C29.9124 71.9708 29.2898 70.4116 29.2898 68.5539C29.2898 66.7128 29.9124 65.1619 31.1576 63.9013C32.4192 62.6241 33.9594 61.9856 35.778 61.9856C37.5967 61.9856 39.1368 62.6241 40.3984 63.9013C41.66 65.1785 42.2907 66.7294 42.2907 68.5539C42.2907 70.3951 41.66 71.9542 40.3984 73.2314ZM33.3941 71.0171C34.0331 71.6639 34.8277 71.9874 35.778 71.9874C36.7283 71.9874 37.5229 71.6639 38.1619 71.0171C38.8009 70.3702 39.1204 69.5491 39.1204 68.5539C39.1204 67.5587 38.8009 66.7377 38.1619 66.0908C37.5229 65.4439 36.7283 65.1205 35.778 65.1205C34.8277 65.1205 34.0331 65.4439 33.3941 66.0908C32.7715 66.7542 32.4602 67.5753 32.4602 68.5539C32.4602 69.5325 32.7715 70.3536 33.3941 71.0171Z" fill="white"/>
<path d="M52.6313 62.3339V69.0515C52.6313 70.0633 52.3855 70.8346 51.894 71.3654C51.4188 71.8796 50.7634 72.1367 49.9279 72.1367C49.1742 72.1367 48.5761 71.9127 48.1338 71.4649C47.7078 71.0171 47.4948 70.3868 47.4948 69.574V62.3339H44.3244V69.9721C44.3244 71.5644 44.7586 72.825 45.627 73.7539C46.5117 74.6661 47.6259 75.1223 48.9694 75.1223C50.657 75.1223 51.8776 74.5417 52.6313 73.3807V74.774H55.8016V62.3339H52.6313Z" fill="white"/>
<path fill-rule="evenodd" clip-rule="evenodd" d="M65.857 61.9856C67.5118 61.9856 68.9208 62.6241 70.0841 63.9013C71.2638 65.1785 71.8536 66.7294 71.8536 68.5539C71.8536 70.4116 71.2638 71.9708 70.0841 73.2314C68.9372 74.492 67.5282 75.1223 65.857 75.1223C64.1367 75.1223 62.8095 74.5169 61.8756 73.306V79.75H58.7053V62.3339H61.8756V63.8018C62.8095 62.591 64.1367 61.9856 65.857 61.9856ZM62.8341 71.0917C63.4731 71.7386 64.2841 72.062 65.2672 72.062C66.2502 72.062 67.0612 71.7386 67.7002 71.0917C68.3556 70.4282 68.6833 69.5823 68.6833 68.5539C68.6833 67.5255 68.3556 66.6879 67.7002 66.041C67.0612 65.3776 66.2502 65.0458 65.2672 65.0458C64.2841 65.0458 63.4731 65.3776 62.8341 66.041C62.1951 66.6879 61.8756 67.5255 61.8756 68.5539C61.8756 69.5823 62.1951 70.4282 62.8341 71.0917Z" fill="white"/>
<path d="M20.2119 11.3448C20.9817 10.6702 22.1336 10.7133 22.8525 11.4435L30.2842 18.9921C34.5801 23.3555 41.5452 23.3555 45.8411 18.9921L53.2728 11.4435C53.9917 10.7133 55.1436 10.6702 55.9134 11.3448L70.2079 23.87L76.1253 16.9027L61.8308 4.37748C57.4683 0.554923 50.941 0.799013 46.867 4.93706L39.4353 12.4856C38.6772 13.2556 37.4481 13.2556 36.69 12.4856L29.2583 4.93706C25.1843 0.799015 18.657 0.554914 14.2945 4.37748L0 16.9027L5.91737 23.87L20.2119 11.3448Z" fill="white"/>
</svg>
